<?xml version="1.0" standalone="no"?>
<!DOCTYPE svg PUBLIC "-//W3C//DTD SVG 20010904//EN"
 "http://www.w3.org/TR/2001/REC-SVG-20010904/DTD/svg10.dtd">
<svg version="1.0" xmlns="http://www.w3.org/2000/svg"
 width="593.000000pt" height="85.000000pt" viewBox="0 0 593.000000 85.000000"
 preserveAspectRatio="xMidYMid meet">

<g transform="translate(0.000000,85.000000) scale(0.100000,-0.100000)"
fill="#ffffff" stroke="none">
<path d="M2715 822 l-30 -17 43 -3 c56 -4 57 -29 1 -38 -41 -7 -37 -24 7 -24
19 0 22 -7 28 -92 3 -50 6 -201 6 -335 l0 -243 -26 -10 c-17 -7 -32 -6 -45 1
-11 5 -52 13 -92 16 -73 6 -70 21 5 22 52 1 60 21 9 21 l-41 0 7 58 c5 31 8
113 8 182 -1 158 -11 180 -115 234 l-70 37 -43 -23 c-28 -16 -53 -41 -74 -77
l-32 -53 -7 39 c-12 65 -40 110 -77 122 -32 11 -59 8 -132 -14 -14 -4 -31 5
-58 30 -46 42 -78 45 -128 11 -34 -23 -69 -78 -69 -107 0 -7 -19 6 -43 29 -37
36 -49 42 -85 42 -51 0 -87 -17 -125 -59 -15 -17 -33 -31 -40 -31 -13 0 -55
-66 -75 -120 -16 -42 -9 -110 18 -184 33 -88 65 -107 217 -133 43 -7 111 27
157 77 37 41 39 72 5 63 -10 -3 -39 -23 -63 -45 l-45 -39 -70 21 c-85 26 -131
70 -131 125 l0 35 93 -1 c50 0 122 -3 160 -8 64 -7 67 -6 67 14 0 12 5 26 11
32 7 7 6 14 -3 24 -25 26 -19 89 14 151 17 32 34 58 39 58 17 0 39 -32 46 -68
4 -20 6 -73 4 -117 -6 -162 -6 -221 1 -256 6 -34 4 -37 -20 -43 -39 -8 -56
-22 -49 -40 5 -13 23 -16 91 -16 47 0 87 4 90 9 6 10 -39 21 -93 22 -55 1 -9
17 52 18 29 1 46 5 42 11 -3 6 -22 10 -41 10 -32 0 -34 2 -34 33 1 59 29 250
39 256 5 4 13 20 17 36 5 24 24 59 50 94 2 2 19 -6 38 -18 34 -22 53 -57 74
-141 12 -48 3 -210 -12 -210 -11 0 -46 -35 -46 -45 0 -3 12 -2 28 1 l27 7 -25
-22 -25 -22 43 4 c24 3 42 1 42 -5 0 -5 7 -2 17 7 11 11 28 15 50 13 28 -3 32
-1 28 13 -3 10 -1 20 5 24 18 11 0 25 -31 25 l-30 0 6 63 c3 34 13 95 22 136
13 64 21 81 59 120 l44 46 21 -25 c49 -58 66 -112 77 -234 12 -140 6 -166 -37
-166 -16 0 -33 -4 -36 -10 -4 -6 10 -10 34 -10 45 0 55 -16 16 -26 -13 -3 -29
-12 -36 -20 -10 -12 1 -14 67 -16 44 -2 107 -2 142 -1 34 1 62 -2 62 -6 0 -5
10 -7 23 -5 20 4 20 3 -3 -7 -42 -19 -5 -22 69 -5 39 9 82 16 96 16 27 0 59
23 48 34 -4 3 -1 6 5 6 7 0 12 5 12 11 0 8 -21 10 -65 7 -71 -4 -68 -8 -48 55
6 20 8 18 14 -13 3 -19 6 24 5 97 0 72 3 135 7 140 5 4 25 -10 45 -32 155
-169 193 -207 188 -190 -6 20 -6 20 9 1 13 -17 12 -23 -7 -57 -28 -50 -17 -62
12 -14 22 35 45 40 33 7 -5 -15 -3 -14 18 3 18 16 21 16 10 2 -8 -9 -11 -20
-8 -23 6 -7 56 46 57 59 0 5 14 29 31 53 33 49 32 69 -2 38 l-21 -19 18 32
c33 57 3 49 -56 -14 -32 -35 -60 -63 -63 -63 -10 0 -151 167 -171 201 -16 30
-14 28 20 -11 54 -63 136 -139 157 -146 46 -15 23 16 -88 122 l-120 113 57 58
58 57 33 -32 c43 -42 56 -41 23 2 -31 41 -35 63 -5 26 14 -17 22 -21 26 -12 2
6 9 10 14 6 20 -12 7 15 -13 29 -19 12 -21 18 -10 28 19 20 14 31 -9 19 -17
-10 -25 -6 -59 32 -39 43 -53 36 -25 -12 21 -37 18 -46 -6 -16 -12 15 -24 25
-27 22 -2 -3 0 -11 6 -18 8 -10 -7 -31 -58 -84 l-68 -72 -6 102 c-10 154 -7
195 15 207 11 5 24 7 29 4 6 -3 10 -2 10 3 0 6 -21 14 -47 20 l-48 10 48 1
c84 2 41 21 -46 21 -58 -1 -91 -6 -112 -18z m110 -42 c-27 -12 -35 -12 -35 0
0 6 12 10 28 9 24 0 25 -1 7 -9z m14 -138 c-2 -80 -2 -83 -9 -37 -12 74 -12
137 0 130 6 -3 9 -44 9 -93z m-879 -22 c6 -11 15 -18 20 -15 13 8 22 -13 15
-35 -9 -28 -21 -25 -35 11 -7 17 -19 37 -27 45 -12 12 -12 14 1 14 8 0 20 -9
26 -20z m197 4 c-3 -3 -12 -4 -19 -1 -8 3 -5 6 6 6 11 1 17 -2 13 -5z m-463
-10 c23 -9 20 -19 -6 -20 -13 -1 -45 -6 -73 -12 -27 -6 -51 -9 -53 -7 -2 1 12
12 30 24 33 21 72 26 102 15z m167 -17 c-10 -9 -11 -8 -5 6 3 10 9 15 12 12 3
-3 0 -11 -7 -18z m209 13 c-8 -5 -19 -10 -25 -10 -5 0 -3 5 5 10 8 5 20 10 25
10 6 0 3 -5 -5 -10z m135 -10 c10 -11 13 -20 7 -20 -6 0 -16 9 -22 20 -6 11
-9 20 -7 20 2 0 12 -9 22 -20z m-15 -49 c0 -10 -7 -6 -20 14 -11 17 -20 35
-20 40 1 17 40 -36 40 -54z m-363 14 c-6 -19 -14 -35 -18 -35 -5 0 -4 12 2 26
20 54 32 61 16 9z m273 31 c0 -2 -8 -10 -17 -17 -16 -13 -17 -12 -4 4 13 16
21 21 21 13z m365 -26 c10 -11 13 -20 7 -20 -6 0 -16 9 -22 20 -6 11 -9 20 -7
20 2 0 12 -9 22 -20z m-323 -2 c20 -17 48 -60 48 -73 -1 -5 -6 0 -13 12 -7 12
-28 34 -47 48 -19 14 -27 25 -19 25 8 0 22 -6 31 -12z m848 -1 c0 -2 -12 -14
-27 -28 l-28 -24 24 28 c23 25 31 32 31 24z m50 -1 c0 -2 -8 -10 -17 -17 -16
-13 -17 -12 -4 4 13 16 21 21 21 13z m-800 -65 c12 -43 12 -208 0 -236 -6 -13
-9 6 -9 61 -1 73 -13 168 -28 219 -5 17 -4 18 10 6 9 -7 21 -30 27 -50z m130
56 c0 -2 -12 -14 -27 -28 l-28 -24 24 28 c23 25 31 32 31 24z m195 -54 c11
-26 15 -69 13 -167 l-2 -131 -5 130 c-6 119 -8 134 -34 178 -26 44 -27 48 -8
37 12 -6 28 -27 36 -47z m-852 35 c9 -7 25 -39 36 -70 l20 -58 -130 0 -129 0
6 28 c12 50 29 75 64 93 40 22 108 25 133 7z m256 -38 l-1 -25 -8 25 c-4 14
-8 32 -9 40 -1 13 0 13 9 0 5 -8 9 -26 9 -40z m494 20 c3 -11 3 -20 1 -20 -2
0 -8 9 -14 20 -6 11 -7 20 -2 20 6 0 12 -9 15 -20z m-663 -44 c-1 -21 -1 -21
-12 -1 -6 11 -18 29 -27 39 -16 19 -15 19 12 1 16 -10 27 -26 27 -39z m716 29
c14 -21 34 -167 33 -240 0 -17 -68 237 -69 258 0 16 20 6 36 -18z m291 -97
c-2 -24 -4 -7 -4 37 0 44 2 63 4 43 2 -21 2 -57 0 -80z m133 77 c-13 -14 -28
-25 -34 -25 -6 0 3 11 19 25 39 31 45 32 15 0z m-1157 -37 c9 -21 12 -38 8
-38 -5 0 -12 11 -15 24 -3 13 -9 32 -13 43 -11 32 4 9 20 -29z m211 -32 c-3
-21 -9 -35 -11 -32 -3 3 -2 21 1 42 4 20 10 34 12 31 3 -3 2 -21 -2 -41z
m-520 2 c-9 -14 -23 2 -17 18 4 12 8 13 14 3 4 -7 5 -17 3 -21z m1416 22 c0
-5 -5 -10 -11 -10 -5 0 -7 5 -4 10 3 6 8 10 11 10 2 0 4 -4 4 -10z m40 -67
l22 -38 -26 24 c-14 14 -26 30 -26 38 0 21 7 16 30 -24z m-1488 4 c3 -13 1
-32 -3 -43 -5 -13 -8 -7 -8 24 -1 46 4 55 11 19z m348 -14 c0 -5 -48 -7 -107
-5 -174 4 -188 9 -35 10 78 1 142 -1 142 -5z m187 -15 c-3 -8 -6 -5 -6 6 -1
11 2 17 5 13 3 -3 4 -12 1 -19z m864 -88 c0 -34 -2 -65 -5 -68 -4 -3 -6 28 -6
68 0 40 3 71 6 68 3 -4 5 -34 5 -68z m-1369 20 c4 -45 -8 -40 -18 8 -4 19 -2
32 4 32 5 0 12 -18 14 -40z m495 18 c-3 -8 -6 -5 -6 6 -1 11 2 17 5 13 3 -3 4
-12 1 -19z m1128 -30 l40 -41 -37 27 c-20 15 -39 34 -42 42 -8 21 -4 18 39
-28z m-276 -120 c1 -48 -11 -80 -24 -66 -2 1 -1 50 3 108 5 90 7 99 13 60 4
-25 8 -71 8 -102z m-290 12 c-5 -16 -7 2 -7 50 1 70 1 72 8 25 4 -27 3 -61 -1
-75z m-704 50 c-3 -5 -15 -10 -26 -10 -11 0 -17 5 -14 10 3 6 15 10 26 10 11
0 17 -4 14 -10z m-225 -44 c33 -19 39 -26 24 -26 -25 0 -86 39 -92 60 -4 12
-2 13 9 3 8 -6 34 -23 59 -37z m-90 9 c7 -9 8 -15 2 -15 -5 0 -12 7 -16 15 -3
8 -4 15 -2 15 2 0 9 -7 16 -15z m1679 -20 c-23 -38 -29 -43 -29 -20 0 12 37
55 47 55 1 0 -7 -16 -18 -35z m-872 19 c-3 -3 -12 -4 -19 -1 -8 3 -5 6 6 6 11
1 17 -2 13 -5z m-577 -34 c-20 -13 -33 -13 -25 0 3 6 14 10 23 10 15 0 15 -2
2 -10z m820 -11 c0 -5 -4 -9 -10 -9 -5 0 -10 7 -10 16 0 8 5 12 10 9 6 -3 10
-10 10 -16z m333 -66 c-7 -2 -19 -2 -25 0 -7 3 -2 5 12 5 14 0 19 -2 13 -5z"/>
<path d="M1077 785 c-4 -16 -8 -65 -9 -108 0 -43 -4 -79 -7 -81 -3 -3 -23 -7
-44 -11 -35 -7 -37 -6 -37 20 0 14 5 35 11 46 9 17 6 21 -23 33 -18 7 -66 19
-105 26 -64 12 -78 11 -115 -3 -31 -12 -45 -14 -55 -6 -10 9 -13 6 -13 -14 0
-14 -4 -29 -10 -32 -10 -6 -14 13 -11 48 1 9 -1 17 -4 17 -4 0 -43 -25 -86
-56 -47 -33 -79 -50 -79 -42 0 18 -56 71 -95 91 -50 24 -187 31 -244 12 -44
-14 -109 -65 -83 -65 6 0 14 5 17 10 4 6 25 20 47 31 l41 21 -34 -42 c-56 -69
-71 -90 -65 -90 4 0 0 -13 -9 -30 -17 -33 -18 -40 -7 -40 4 0 18 20 32 45 14
26 27 40 31 33 4 -7 11 -3 18 10 17 32 70 65 103 64 17 0 41 -11 54 -23 29
-27 70 -110 79 -161 l7 -38 -38 17 c-50 21 -171 20 -212 -1 -38 -20 -80 -70
-105 -125 -24 -54 -26 -172 -3 -222 27 -61 37 -68 107 -70 54 -2 74 2 130 29
37 18 82 49 102 72 20 21 38 36 40 32 3 -4 8 -42 12 -86 4 -43 10 -74 14 -70
22 25 48 181 56 334 3 69 9 141 12 160 12 67 22 1 22 -145 0 -129 -4 -166 -24
-280 -6 -34 -5 -38 6 -27 8 7 15 23 16 35 1 12 7 78 13 147 12 133 8 244 -11
298 -10 28 -9 36 7 53 10 11 24 17 32 14 8 -3 20 0 28 5 10 9 14 2 19 -32 3
-24 5 -63 4 -88 -1 -25 -1 -94 0 -154 1 -59 -2 -130 -5 -157 -6 -48 -7 -49
-41 -49 -23 0 -33 -4 -31 -12 3 -8 33 -15 79 -19 l74 -5 -72 -2 c-107 -3 -91
-22 20 -24 78 -2 82 -2 27 -5 -111 -7 -94 -23 22 -23 99 0 109 2 132 24 15 13
26 26 26 29 0 3 -24 11 -54 17 l-53 11 -7 106 c-3 58 -6 159 -6 224 l0 119 42
30 c41 30 106 41 135 22 22 -14 35 -63 21 -80 -12 -13 -7 -14 42 -8 l55 7 -70
-35 c-38 -19 -65 -35 -60 -35 20 -1 151 18 166 24 14 5 17 -10 23 -111 4 -72
14 -140 26 -175 11 -31 25 -87 32 -123 l12 -66 28 30 c24 27 48 39 48 24 0 -3
-9 -19 -21 -35 -43 -61 -11 -49 47 17 62 72 86 115 98 174 4 19 10 44 12 55 4
17 2 17 -17 -5 l-22 -25 6 30 c3 17 9 39 13 49 7 18 6 19 -15 4 -12 -9 -37
-47 -56 -86 -18 -38 -37 -72 -43 -76 -13 -8 -73 316 -61 329 3 2 50 9 105 16
146 17 146 33 -1 25 -81 -5 -115 -3 -105 3 8 6 39 13 68 17 36 4 49 9 41 15
-10 6 -3 9 19 9 17 0 32 5 32 11 0 7 -29 9 -86 7 l-86 -3 7 43 c7 50 -3 152
-16 152 -5 0 -9 -9 -9 -20 0 -11 -4 -20 -10 -20 -6 0 -10 -34 -10 -82 0 -110
-14 -90 -20 30 -4 72 -7 89 -13 67z m-824 -62 c-7 -2 -21 -2 -30 0 -10 3 -4 5
12 5 17 0 24 -2 18 -5z m537 -44 c-19 -12 -46 -31 -59 -43 -22 -20 -23 -20
-20 -1 3 12 22 29 49 43 56 28 77 29 30 1z m-365 -9 c3 -6 -1 -7 -9 -4 -18 7
-21 14 -7 14 6 0 13 -4 16 -10z m420 0 c-11 -5 -27 -9 -35 -9 -13 -1 -13 0 0
9 8 5 24 9 35 9 l20 0 -20 -9z m135 -10 c0 -5 -2 -10 -4 -10 -3 0 -8 5 -11 10
-3 6 -1 10 4 10 6 0 11 -4 11 -10z m-622 -17 c26 -24 48 -86 55 -158 l6 -60
-32 97 c-18 53 -41 106 -52 118 -22 24 -5 27 23 3z m529 11 c-3 -3 -12 -4 -19
-1 -8 3 -5 6 6 6 11 1 17 -2 13 -5z m67 -10 c4 -10 1 -14 -6 -12 -15 5 -23 28
-10 28 5 0 13 -7 16 -16z m-510 -49 c4 -20 10 -44 12 -53 3 -9 -8 9 -25 41
-36 67 -37 71 -12 58 10 -6 22 -27 25 -46z m33 -17 c-3 -8 -6 -5 -6 6 -1 11 2
17 5 13 3 -3 4 -12 1 -19z m482 8 c9 -10 8 -15 -4 -20 -10 -4 -15 1 -15 14 0
24 4 25 19 6z m-510 -135 c1 -64 -5 -47 -12 29 -3 39 -2 55 3 40 4 -14 8 -45
9 -69z m601 79 c-14 -4 -32 -8 -40 -9 -13 -1 -13 0 0 9 8 5 26 9 40 9 l25 -1
-25 -8z m93 -82 c3 -40 19 -123 34 -185 25 -97 26 -110 11 -96 -23 20 -45 100
-53 188 -3 39 -8 91 -11 118 -4 27 -2 47 4 47 5 0 12 -33 15 -72z m-56 -30
c-2 -18 -4 -4 -4 32 0 36 2 50 4 33 2 -18 2 -48 0 -65z m-407 -12 c0 -51 -6
-43 -14 19 -5 36 -4 46 3 35 6 -8 11 -33 11 -54z m-557 -3 c-22 -26 -50 -68
-61 -93 -13 -28 -21 -38 -21 -25 -1 34 34 100 74 138 52 51 56 38 8 -20z m77
42 c-14 -7 -27 -11 -30 -9 -6 7 22 24 40 23 9 0 5 -6 -10 -14z m464 -130 c22
-167 22 -175 -10 -175 -24 0 -26 3 -20 31 3 17 6 86 6 152 0 66 2 118 4 116 3
-2 12 -58 20 -124z m-350 106 c-2 -2 15 -24 37 -49 40 -42 41 -46 37 -98 -4
-45 -11 -61 -38 -89 -36 -37 -82 -55 -141 -55 -51 0 -63 19 -63 99 1 73 14
111 59 165 26 31 35 35 72 33 22 -1 39 -4 37 -6z m-140 -23 c-13 -24 -47 -58
-58 -58 -5 0 5 16 24 35 35 37 46 44 34 23z m923 -70 c-2 -13 -4 -5 -4 17 -1
22 1 32 4 23 2 -10 2 -28 0 -40z m-997 -43 c-6 -30 -8 -33 -9 -13 -1 25 8 62
14 56 2 -2 -1 -21 -5 -43z m26 -27 c0 -35 3 -75 7 -90 6 -22 4 -28 -8 -28 -12
0 -15 13 -15 59 0 50 8 121 14 121 2 0 2 -28 2 -62z m581 -80 c-2 -24 -4 -5
-4 42 0 47 2 66 4 43 2 -24 2 -62 0 -85z m400 85 c-3 -10 -5 -4 -5 12 0 17 2
24 5 18 2 -7 2 -21 0 -30z m-1046 -105 c6 -25 19 -43 37 -52 l27 -15 -28 -1
c-32 0 -47 28 -53 100 -3 44 -2 42 17 -32z m1198 2 c-6 -16 -15 -30 -20 -30
-5 0 -3 14 6 30 9 17 17 30 20 30 2 0 -1 -13 -6 -30z m-1175 -6 c3 -8 2 -12
-4 -9 -6 3 -10 10 -10 16 0 14 7 11 14 -7z m1109 -31 c-5 -14 -8 -13 -20 3 -7
10 -13 24 -13 32 0 12 4 12 19 -2 11 -10 17 -25 14 -33z m-1043 -14 c0 -4 -7
-6 -15 -3 -8 4 -15 10 -15 15 0 4 7 6 15 3 8 -4 15 -10 15 -15z m100 1 c-20
-13 -80 -13 -80 0 0 6 21 10 48 10 34 0 43 -3 32 -10z m523 -37 c-7 -2 -19 -2
-25 0 -7 3 -2 5 12 5 14 0 19 -2 13 -5z"/>
<path d="M4178 800 c-4 -8 -10 -58 -13 -111 l-7 -96 -69 -18 c-87 -22 -104
-41 -28 -31 l54 7 -70 -35 c-38 -19 -65 -35 -60 -35 15 -1 148 19 166 24 14 5
17 -10 22 -112 3 -66 12 -137 21 -160 24 -68 48 -172 42 -182 -4 -5 -2 -12 3
-15 5 -4 19 7 31 24 12 16 28 30 37 30 12 0 11 -6 -6 -36 -12 -19 -21 -41 -21
-47 0 -17 107 101 129 143 38 72 58 195 22 132 -9 -15 -10 -14 -11 6 0 13 5
32 11 44 6 11 8 22 5 25 -10 10 -40 -29 -74 -96 -18 -36 -37 -70 -42 -75 -9
-9 -24 54 -49 218 l-18 114 41 6 c23 3 71 8 109 12 37 3 70 10 73 15 6 10 -86
10 -168 0 -32 -4 -58 -4 -58 0 0 10 23 17 81 25 33 4 46 10 37 15 -9 6 -5 9
14 9 15 0 30 5 33 11 5 7 -20 10 -80 7 l-87 -3 6 51 c7 59 -2 144 -15 144 -5
0 -9 -9 -9 -20 0 -11 -4 -20 -10 -20 -6 0 -10 -31 -10 -74 0 -117 -19 -103
-22 16 -2 57 -6 96 -10 88z m-28 -270 c-14 -4 -32 -8 -40 -9 -13 -1 -13 0 0 9
8 5 26 9 40 9 l25 -1 -25 -8z m93 -92 c4 -40 18 -118 31 -172 14 -55 24 -101
22 -104 -11 -10 -38 52 -50 114 -18 90 -30 248 -18 240 5 -3 12 -38 15 -78z
m-51 -38 c4 -69 3 -89 -2 -60 -9 45 -13 177 -6 169 2 -2 6 -51 8 -109z m15
-142 c-3 -7 -5 -2 -5 12 0 14 2 19 5 13 2 -7 2 -19 0 -25z m152 -96 c-6 -18
-15 -32 -21 -32 -5 0 -8 3 -6 8 34 69 47 81 27 24z m-66 -38 c-8 -20 -29 -1
-36 32 l-4 25 23 -22 c12 -11 20 -28 17 -35z"/>
<path d="M3455 721 c-41 -19 -87 -61 -67 -61 6 0 14 5 17 10 4 6 25 20 48 32
l42 21 -48 -56 c-26 -31 -50 -65 -52 -76 -2 -11 -8 -29 -14 -40 -13 -24 -14
-31 -3 -31 4 0 18 21 31 47 16 33 25 43 31 33 6 -10 10 -8 19 8 30 57 113 81
153 45 27 -24 74 -119 81 -165 l5 -36 -36 15 c-48 21 -169 21 -208 0 -92 -48
-145 -172 -125 -296 6 -35 19 -73 31 -89 52 -66 218 -35 312 59 53 54 52 54
63 -55 4 -37 11 -64 15 -60 18 19 41 167 51 334 6 96 13 177 15 179 13 14 19
-24 22 -122 3 -99 -4 -188 -24 -321 -4 -24 -3 -36 3 -33 20 13 35 172 31 327
-4 141 -7 160 -30 210 -46 98 -93 125 -228 134 -80 5 -101 3 -135 -13z m118 2
c-7 -2 -21 -2 -30 0 -10 3 -4 5 12 5 17 0 24 -2 18 -5z m172 -53 c3 -6 -1 -7
-9 -4 -18 7 -21 14 -7 14 6 0 13 -4 16 -10z m-80 -16 c26 -10 57 -83 66 -153
4 -36 6 -67 4 -69 -2 -2 -16 36 -31 84 -14 49 -35 101 -46 117 -20 28 -20 31
7 21z m95 -52 c16 -57 11 -61 -15 -12 -28 53 -30 61 -10 54 8 -3 19 -22 25
-42z m37 -34 c-3 -7 -5 -2 -5 12 0 14 2 19 5 13 2 -7 2 -19 0 -25z m-28 -137
c1 -76 -5 -60 -12 29 -3 44 -2 65 3 50 4 -14 8 -49 9 -79z m-300 12 c-7 -10
-23 -29 -35 -43 -12 -14 -33 -47 -47 -75 -16 -30 -26 -42 -27 -31 0 34 40 105
78 136 42 34 50 38 31 13z m51 2 c-33 -19 -46 -19 -30 0 7 8 22 15 34 15 20
-1 20 -2 -4 -15z m104 -30 c15 -6 17 -5 11 5 -6 9 -4 11 4 6 7 -5 10 -10 7
-13 -3 -3 11 -24 30 -47 33 -37 35 -45 31 -89 -8 -85 -62 -136 -153 -143 -83
-7 -89 0 -88 93 0 83 7 104 59 167 31 37 50 41 99 21z m-144 -40 c-7 -9 -23
-21 -34 -27 -20 -11 -20 -10 -6 8 19 26 43 45 48 39 3 -2 -1 -12 -8 -20z m-57
-77 c-9 -49 -25 -82 -17 -38 7 45 14 70 19 70 3 0 2 -15 -2 -32z m31 -145 c3
-7 -1 -13 -8 -13 -20 0 -27 37 -19 100 l7 55 8 -64 c4 -35 9 -70 12 -78z m-74
5 c7 -24 20 -43 38 -52 l27 -15 -28 -1 c-33 0 -48 29 -53 105 -1 28 -1 39 2
25 2 -14 9 -42 14 -62z m30 -23 c0 -5 -5 -3 -10 5 -5 8 -10 20 -10 25 0 6 5 3
10 -5 5 -8 10 -19 10 -25z m60 -26 c0 -4 -7 -6 -15 -3 -8 4 -15 10 -15 15 0 4
7 6 15 3 8 -4 15 -10 15 -15z m95 1 c-28 -12 -75 -12 -75 0 0 6 21 10 48 9 35
0 42 -3 27 -9z"/>
<path d="M5432 713 c-6 -6 -29 -14 -51 -18 -23 -4 -44 -11 -47 -17 -7 -10 37
-6 84 8 9 3 0 -4 -21 -16 -22 -12 -52 -36 -67 -54 -28 -31 -31 -32 -102 -30
-72 1 -143 -14 -184 -41 -26 -16 -49 -63 -68 -138 -14 -53 -13 -61 7 -133 17
-59 31 -86 63 -120 37 -41 44 -44 90 -44 27 0 76 7 107 15 78 20 83 19 96 -15
5 -17 15 -30 21 -30 7 0 8 6 0 19 -16 30 -12 43 10 36 24 -8 24 -5 1 70 -10
33 -23 59 -30 57 -6 -1 -11 4 -11 12 0 18 -16 29 -29 21 -6 -3 -6 -18 -1 -36
9 -31 9 -31 -10 -14 -16 15 -20 15 -20 4 0 -8 5 -20 12 -27 18 -18 4 -25 -55
-29 -44 -3 -59 1 -98 26 -40 26 -50 38 -68 92 -37 110 -26 135 79 182 107 48
123 44 75 -19 -29 -38 -34 -64 -9 -43 9 7 29 14 45 14 21 0 39 13 73 53 51 60
54 66 27 57 -17 -5 -17 -3 3 39 20 42 43 66 29 30 -5 -14 -1 -15 24 -10 l30 7
6 -120 c4 -66 14 -165 22 -220 15 -102 17 -181 5 -181 -14 0 -102 -42 -97 -46
2 -2 26 0 53 5 56 11 70 6 29 -9 -45 -17 -19 -25 86 -25 107 -1 118 11 23 23
l-59 8 63 8 c35 4 60 11 57 17 -4 5 -12 9 -20 9 -15 0 -41 156 -31 193 15 62
103 144 128 119 15 -15 27 -92 27 -178 1 -66 -1 -72 -21 -78 l-23 -6 23 -13
23 -13 -27 -27 c-33 -33 -20 -35 68 -8 35 11 86 23 113 28 l50 7 -55 7 c-30 3
-47 6 -37 7 10 1 25 9 33 17 14 13 11 15 -20 15 -20 0 -36 3 -36 8 -1 41 -31
226 -39 241 -6 11 -35 31 -64 45 l-53 27 -46 -21 c-25 -11 -49 -28 -53 -37
-11 -31 -22 4 -34 107 -15 134 -12 170 13 170 12 0 16 4 11 9 -15 14 -111 18
-123 4z m63 -239 c15 -161 19 -251 10 -243 -6 7 -35 302 -35 362 0 91 10 43
25 -119z m-415 71 c0 -2 -10 -9 -22 -15 -22 -11 -22 -10 -4 4 21 17 26 19 26
11z m128 -1 c-4 -3 -34 -19 -69 -35 -43 -21 -58 -24 -48 -13 15 19 85 53 108
54 8 0 12 -3 9 -6z m-202 -150 c-11 -38 -15 -43 -15 -22 -1 27 19 82 26 74 2
-2 -2 -26 -11 -52z m644 13 c-13 -7 -39 -32 -57 -55 -38 -50 -41 -48 -14 7 19
36 50 59 81 60 8 0 4 -5 -10 -12z m88 -38 c-3 -8 -7 -3 -11 10 -4 17 -3 21 5
13 5 -5 8 -16 6 -23z m60 -174 c-1 -38 -1 -38 -8 10 -5 28 -8 73 -8 100 l1 50
7 -60 c4 -33 8 -78 8 -100z m-700 27 c16 -14 19 -20 7 -13 -48 25 -64 47 -70
91 l-6 45 21 -50 c11 -27 33 -61 48 -73z m649 66 c-2 -13 -4 -5 -4 17 -1 22 1
32 4 23 2 -10 2 -28 0 -40z m20 -100 c-2 -18 -4 -4 -4 32 0 36 2 50 4 33 2
-18 2 -48 0 -65z m-213 -31 c6 -57 6 -58 -16 -55 -15 2 -22 9 -19 18 2 8 6 29
8 45 5 37 12 59 17 54 2 -2 6 -30 10 -62z m-419 12 c38 -13 44 -18 24 -18 -34
-1 -90 18 -109 36 -13 13 -12 14 10 8 14 -5 48 -16 75 -26z"/>
<path d="M4685 611 c-16 -10 -41 -30 -54 -45 -14 -14 -30 -26 -36 -26 -19 0
-77 -108 -82 -154 -7 -60 29 -176 67 -220 30 -34 51 -41 176 -63 58 -10 184
75 184 124 0 20 -3 22 -27 12 -16 -6 -44 -26 -64 -45 l-36 -35 -71 21 c-87 27
-132 70 -132 127 l0 36 143 -6 c78 -3 150 -9 160 -12 13 -6 17 -2 17 17 0 13
5 29 11 35 7 7 6 15 -5 25 -8 9 -16 37 -17 64 -2 45 -7 54 -59 107 -52 52 -60
57 -101 57 -25 0 -57 -8 -74 -19z m113 -3 c8 -10 4 -13 -16 -15 -15 -1 -48 -6
-74 -11 -27 -5 -48 -8 -48 -7 0 2 15 12 33 24 36 23 89 28 105 9z m15 -70 c9
-7 25 -39 36 -70 l20 -58 -131 0 -130 0 7 28 c13 52 30 77 65 94 41 21 109 23
133 6z m83 -51 c10 -30 0 -27 -23 9 -20 31 -20 32 -2 21 10 -6 22 -20 25 -30z
m-12 -44 c9 -18 12 -33 7 -33 -5 0 -14 14 -20 31 -19 54 -14 54 13 2z m-314
-14 c0 -11 -4 -18 -10 -14 -5 3 -7 12 -3 20 7 21 13 19 13 -6z m-33 -91 c-2
-13 -4 -3 -4 22 0 25 2 35 4 23 2 -13 2 -33 0 -45z m353 25 c0 -5 -48 -7 -107
-5 -174 4 -188 9 -35 10 78 1 142 -1 142 -5z m-321 -93 c0 -29 -2 -31 -9 -15
-5 11 -9 34 -9 50 -1 23 2 26 9 15 5 -8 9 -31 9 -50z m356 -59 c-3 -6 -14 -9
-25 -8 -24 2 -15 17 11 17 11 0 18 -4 14 -9z m-262 -26 c18 -13 44 -29 57 -35
23 -9 22 -10 -10 -5 -20 3 -48 18 -65 35 -36 36 -26 39 18 5z m-53 -10 c7 -9
8 -15 2 -15 -5 0 -12 7 -16 15 -3 8 -4 15 -2 15 2 0 9 -7 16 -15z m230 -35
c-20 -13 -33 -13 -25 0 3 6 14 10 23 10 15 0 15 -2 2 -10z"/>
<path d="M3953 278 c-46 -47 -57 -84 -43 -133 19 -64 24 -70 67 -73 132 -10
167 208 37 234 -24 4 -35 0 -61 -28z m81 -6 c2 -4 -11 -20 -30 -35 -36 -30
-46 -19 -18 21 15 22 39 29 48 14z m-83 -69 c-9 -16 -10 -15 -11 8 0 14 3 29
8 33 12 12 14 -22 3 -41z m97 0 c-5 -26 -38 -29 -38 -4 0 15 6 21 21 21 14 0
19 -5 17 -17z m-78 -29 c0 -8 -5 -12 -10 -9 -6 4 -8 11 -5 16 9 14 15 11 15
-7z m35 -14 c10 -11 13 -20 7 -20 -6 0 -16 9 -22 20 -6 11 -9 20 -7 20 2 0 12
-9 22 -20z m-2 -31 c29 -7 28 -8 -13 -6 -36 2 -46 6 -49 22 -3 17 -1 18 13 6
9 -7 31 -17 49 -22z m47 -14 c-18 -19 -34 -25 -67 -25 -24 0 -43 4 -43 8 0 5
21 9 47 10 32 0 51 5 58 16 5 9 14 16 19 16 5 0 -1 -11 -14 -25z"/>
</g>
</svg>
